<svg xmlns="http://www.w3.org/2000/svg" width="28" height="28" viewBox="0 0 28 28" fill="none">
  <g clip-path="url(#clip0_1_586)">
    <path d="M1.9348 11.907V18.9882C1.93462 19.9181 2.11761 20.8388 2.47332 21.698C2.82903 22.5571 3.35049 23.3377 4.00793 23.9953C4.66537 24.6529 5.4459 25.1745 6.30496 25.5304C7.16401 25.8862 8.08475 26.0694 9.0146 26.0694H14.1624C15.0923 26.0694 16.013 25.8862 16.872 25.5304C17.7311 25.1745 18.5116 24.6529 19.1691 23.9953C19.8265 23.3377 20.348 22.5571 20.7037 21.698C21.0594 20.8388 21.2424 19.9181 21.2422 18.9882V11.9084L1.9348 11.907ZM16.6418 0.224003C16.8382 0.388492 16.9612 0.624269 16.9838 0.879468C17.0064 1.13467 16.9267 1.38838 16.7622 1.5848C15.8634 2.6558 15.6646 3.3866 15.9418 3.8766C16.0286 4.0292 16.772 5.2038 16.9428 5.5664C17.3292 6.3854 17.3796 7.1792 17.0464 8.1172C16.8019 8.79114 16.4465 9.41951 15.995 9.9764H21.4284C22.0407 9.9988 22.484 10.1551 22.7584 10.4454C22.9115 10.605 23.0221 10.8066 23.0902 11.0502L23.1742 11.0474C24.4546 11.0474 25.6826 11.5561 26.588 12.4615C27.4934 13.3669 28.0021 14.5949 28.0021 15.8753C28.0021 17.1557 27.4934 18.3837 26.588 19.2891C25.6826 20.1946 24.4546 20.7032 23.1742 20.7032L23.0118 20.6976C22.614 22.7527 21.5135 24.6052 19.8991 25.9376C18.2847 27.27 16.257 27.9992 14.1638 28H9.0132C7.82982 28 6.65803 27.7669 5.56475 27.314C4.47146 26.8611 3.4781 26.1973 2.64139 25.3604C1.80468 24.5236 1.14101 23.5301 0.688276 22.4368C0.235543 21.3434 0.00261809 20.1716 0.00280196 18.9882V11.6718C-0.025198 11.0651 0.0886687 10.6358 0.344402 10.3838C0.601069 10.1318 0.978602 9.99647 1.477 9.9778H5.6112C5.66526 9.88822 5.73333 9.80787 5.8128 9.7398C6.6668 9.016 7.224 8.26 7.504 7.4718C7.6636 7.0238 7.6454 6.7578 7.4732 6.3924C7.364 6.16 6.6766 5.0736 6.5394 4.83C5.7848 3.4972 6.2006 1.9684 7.5586 0.347203C7.63846 0.245143 7.73804 0.160194 7.85141 0.0974154C7.96478 0.0346366 8.08963 -0.00468908 8.21851 -0.0182203C8.3474 -0.0317516 8.47768 -0.0192118 8.60162 0.0186525C8.72556 0.0565167 8.84061 0.118931 8.93993 0.20218C9.03924 0.28543 9.12079 0.387811 9.17972 0.50323C9.23865 0.618648 9.27376 0.744744 9.28295 0.87401C9.29213 1.00328 9.27522 1.13307 9.23321 1.25566C9.19119 1.37826 9.12494 1.49114 9.0384 1.5876C8.1396 2.6586 7.9422 3.3894 8.2194 3.8794C8.3048 4.032 9.0496 5.2066 9.2204 5.5692C9.6054 6.3882 9.6572 7.182 9.3226 8.12C9.07849 8.79385 8.72362 9.42221 8.2726 9.9792H9.4738C9.52787 9.88962 9.59593 9.80927 9.6754 9.7412C10.528 9.016 11.0852 8.26 11.3652 7.4718C11.5248 7.0238 11.508 6.7578 11.3344 6.3924C11.2252 6.16 10.5378 5.0736 10.4006 4.83C9.646 3.4972 10.0618 1.9684 11.4212 0.347203C11.5004 0.243206 11.5998 0.15636 11.7136 0.091921C11.8273 0.0274824 11.9529 -0.0132078 12.0828 -0.0276859C12.2127 -0.042164 12.3442 -0.0301289 12.4693 0.00769074C12.5944 0.0455104 12.7106 0.108328 12.8107 0.19234C12.9108 0.276352 12.9929 0.379811 13.0518 0.496454C13.1108 0.613096 13.1455 0.740495 13.1538 0.870938C13.1622 1.00138 13.1439 1.13215 13.1002 1.25534C13.0565 1.37852 12.9883 1.49156 12.8996 1.5876C12.0022 2.6586 11.8034 3.3894 12.0806 3.8794C12.1674 4.032 12.9108 5.2066 13.0816 5.5692C13.468 6.3882 13.5184 7.182 13.1838 8.12C12.9397 8.79385 12.5848 9.42221 12.1338 9.9792H13.3364C13.39 9.88972 13.4576 9.80937 13.5366 9.7412C14.3906 9.016 14.9464 8.26 15.2264 7.4718C15.386 7.0238 15.3692 6.7578 15.1956 6.3924C15.0864 6.16 14.4004 5.0736 14.2618 4.83C13.5086 3.4972 13.923 1.9684 15.2824 0.347203C15.4469 0.151201 15.6823 0.0284447 15.9372 0.00587246C16.1921 -0.0166998 16.4455 0.0627556 16.6418 0.226803M23.1728 12.9808V18.774C23.941 18.774 24.6778 18.4688 25.221 17.9256C25.7642 17.3824 26.0694 16.6456 26.0694 15.8774C26.0694 15.1092 25.7642 14.3724 25.221 13.8292C24.6778 13.286 23.941 12.9808 23.1728 12.9808Z" fill="white"/>
  </g>
  <defs>
    <clipPath id="clip0_1_586">
      <rect width="28" height="28" fill="white"/>
    </clipPath>
  </defs>
</svg>