<svg xmlns="http://www.w3.org/2000/svg" width="27" height="27" viewBox="0 0 27 27" fill="none">
  <path d="M10.7427 23.3437C11.7996 23.3437 12.6564 22.487 12.6564 21.4301C12.6564 20.3732 11.7996 19.5165 10.7427 19.5165C9.68586 19.5165 8.8291 20.3732 8.8291 21.4301C8.8291 22.487 9.68586 23.3437 10.7427 23.3437Z" stroke="#797979" stroke-width="1.5" stroke-linecap="round" stroke-linejoin="round"/>
  <path d="M19.0799 23.3437C20.1368 23.3437 20.9935 22.487 20.9935 21.4301C20.9935 20.3732 20.1368 19.5165 19.0799 19.5165C18.023 19.5165 17.1663 20.3732 17.1663 21.4301C17.1663 22.487 18.023 23.3437 19.0799 23.3437Z" stroke="#797979" stroke-width="1.5" stroke-linecap="round" stroke-linejoin="round"/>
  <path d="M6.30675 6.24937L8.568 13.4089C8.91563 14.5091 9.08888 15.0592 9.423 15.4665C9.7155 15.8265 10.0969 16.1044 10.5277 16.2765C11.0171 16.4711 11.5931 16.4711 12.7474 16.4711H17.0842C18.2385 16.4711 18.8145 16.4711 19.3028 16.2765C19.7348 16.1044 20.115 15.8265 20.4086 15.4665C20.7416 15.0592 20.9149 14.5091 21.2636 13.4089L21.7237 11.9509L21.9937 11.0891L22.3661 9.90787C22.499 9.48656 22.5308 9.03987 22.4589 8.604C22.3869 8.16812 22.2133 7.75531 21.9522 7.39903C21.691 7.04274 21.3495 6.75299 20.9555 6.55325C20.5614 6.35352 20.1259 6.24941 19.6841 6.24937H6.30675ZM6.30675 6.24937L6.29437 6.20775C6.24687 6.04863 6.19434 5.89105 6.13687 5.73525C5.90912 5.15873 5.52289 4.65842 5.02282 4.29213C4.52274 3.92583 3.92924 3.7085 3.31088 3.66525C3.195 3.65625 3.06787 3.65625 2.8125 3.65625" stroke="#797979" stroke-width="1.5" stroke-linecap="round" stroke-linejoin="round"/>
</svg>