<svg xmlns="http://www.w3.org/2000/svg" width="80" height="80" viewBox="0 0 80 80" fill="none">
  <g clip-path="url(#clip0_1_849)">
    <path d="M5.52794 34.02V54.252C5.52741 56.9087 6.05024 59.5395 7.06655 61.9941C8.08287 64.4488 9.57277 66.6792 11.4512 68.5579C13.3296 70.4367 15.5597 71.927 18.0141 72.9438C20.4685 73.9606 23.0992 74.484 25.7559 74.484H40.4639C43.1207 74.484 45.7513 73.9606 48.2058 72.9438C50.6602 71.927 52.8903 70.4367 54.7687 68.5579C56.6471 66.6792 58.137 64.4488 59.1533 61.9941C60.1696 59.5395 60.6925 56.9087 60.6919 54.252V34.024L5.52794 34.02ZM47.5479 0.639996C48.1091 1.10996 48.4606 1.78361 48.5252 2.51275C48.5897 3.24189 48.3619 3.96679 47.8919 4.528C45.3239 7.588 44.7559 9.676 45.5479 11.076C45.7959 11.512 47.9199 14.868 48.4079 15.904C49.5119 18.244 49.6559 20.512 48.7039 23.192C48.0053 25.1175 46.99 26.9129 45.6999 28.504H61.2239C62.9733 28.568 64.2399 29.0147 65.0239 29.844C65.4613 30.3 65.7773 30.876 65.9719 31.572L66.2119 31.564C69.8703 31.564 73.3789 33.0173 75.9658 35.6042C78.5526 38.191 80.0059 41.6996 80.0059 45.358C80.0059 49.0164 78.5526 52.525 75.9658 55.1118C73.3789 57.6987 69.8703 59.152 66.2119 59.152L65.7479 59.136C64.6113 65.0076 61.467 70.3007 56.8545 74.1075C52.2419 77.9143 46.4485 79.9976 40.4679 80H25.7519C22.3708 80 19.0229 79.334 15.8992 78.04C12.7755 76.746 9.93737 74.8493 7.54676 72.4583C5.15616 70.0674 3.25995 67.2289 1.96643 64.105C0.672911 60.9812 0.00741051 57.6331 0.00793585 54.252V33.348C-0.0720641 31.6147 0.253269 30.388 0.983936 29.668C1.71727 28.948 2.79594 28.5613 4.21994 28.508H16.0319C16.1864 28.252 16.3809 28.0225 16.6079 27.828C19.0479 25.76 20.6399 23.6 21.4399 21.348C21.8959 20.068 21.8439 19.308 21.3519 18.264C21.0399 17.6 19.0759 14.496 18.6839 13.8C16.5279 9.992 17.7159 5.624 21.5959 0.991996C21.8241 0.700394 22.1086 0.457685 22.4325 0.278317C22.7565 0.0989486 23.1132 -0.0134104 23.4814 -0.0520712C23.8496 -0.0907319 24.2219 -0.054904 24.576 0.0532797C24.9301 0.161463 25.2588 0.339791 25.5426 0.577645C25.8263 0.8155 26.0593 1.10802 26.2277 1.43779C26.3961 1.76755 26.4964 2.12783 26.5226 2.49716C26.5489 2.86649 26.5006 3.23733 26.3805 3.5876C26.2605 3.93786 26.0712 4.2604 25.8239 4.536C23.2559 7.596 22.6919 9.684 23.4839 11.084C23.7279 11.52 25.8559 14.876 26.3439 15.912C27.4439 18.252 27.5919 20.52 26.6359 23.2C25.9385 25.1253 24.9245 26.9206 23.6359 28.512H27.0679C27.2224 28.256 27.4169 28.0265 27.6439 27.832C30.0799 25.76 31.6719 23.6 32.4719 21.348C32.9279 20.068 32.8799 19.308 32.3839 18.264C32.0719 17.6 30.1079 14.496 29.7159 13.8C27.5599 9.992 28.7479 5.624 32.6319 0.991996C32.8582 0.694862 33.1423 0.446729 33.4672 0.262618C33.7922 0.078508 34.151 -0.0377496 34.5222 -0.0791156C34.8933 -0.120482 35.269 -0.0860957 35.6265 0.0219605C35.984 0.130017 36.3158 0.309495 36.6019 0.54953C36.888 0.789564 37.1224 1.08516 37.2909 1.41843C37.4594 1.75169 37.5586 2.11569 37.5823 2.48838C37.6061 2.86107 37.5539 3.23471 37.4291 3.58667C37.3042 3.93863 37.1092 4.26159 36.8559 4.536C34.2919 7.596 33.7239 9.684 34.5159 11.084C34.7639 11.52 36.8879 14.876 37.3759 15.912C38.4799 18.252 38.6239 20.52 37.6679 23.2C36.9705 25.1253 35.9566 26.9206 34.6679 28.512H38.1039C38.2572 28.2563 38.4503 28.0268 38.6759 27.832C41.1159 25.76 42.7039 23.6 43.5039 21.348C43.9599 20.068 43.9119 19.308 43.4159 18.264C43.1039 17.6 41.1439 14.496 40.7479 13.8C38.5959 9.992 39.7799 5.624 43.6639 0.991996C44.1338 0.431989 44.8066 0.0812575 45.5348 0.0167654C46.263 -0.0477268 46.987 0.179289 47.5479 0.647996M66.2079 37.088V53.64C68.4029 53.64 70.5079 52.7681 72.06 51.216C73.612 49.664 74.4839 47.5589 74.4839 45.364C74.4839 43.1691 73.612 41.064 72.06 39.512C70.5079 37.9599 68.4029 37.088 66.2079 37.088Z" fill="url(#paint0_linear_1_849)"/>
  </g>
  <defs>
    <linearGradient id="paint0_linear_1_849" x1="40.001" y1="-0.0960999" x2="40.001" y2="80" gradientUnits="userSpaceOnUse">
      <stop stop-color="#F1A01D"/>
      <stop offset="1" stop-color="#D9373A"/>
    </linearGradient>
    <clipPath id="clip0_1_849">
      <rect width="80" height="80" fill="white"/>
    </clipPath>
  </defs>
</svg>