<svg xmlns="http://www.w3.org/2000/svg" width="22" height="22" viewBox="0 0 22 22" fill="none">
  <path d="M11 20.0255C10.6131 20.0255 10.2874 19.8932 10.0228 19.6286C9.75759 19.3633 9.62498 19.0373 9.62498 18.6505C9.62498 18.2643 9.75759 17.9385 10.0228 17.6733C10.2874 17.4081 10.6131 17.2755 11 17.2755C11.3868 17.2755 11.7125 17.4081 11.9771 17.6733C12.2418 17.9385 12.3744 18.2643 12.375 18.6505C12.3756 19.0367 12.243 19.3627 11.9771 19.6286C11.7125 19.8932 11.3868 20.0255 11 20.0255ZM5.71082 4.44214C5.32459 4.44214 4.99887 4.30984 4.73365 4.04522C4.46904 3.78 4.33673 3.45397 4.33673 3.06714C4.33673 2.68092 4.46904 2.3552 4.73365 2.08997C4.99887 1.82475 5.3249 1.69214 5.71173 1.69214C6.09857 1.69214 6.42429 1.82475 6.6889 2.08997C6.95351 2.3552 7.08612 2.68092 7.08673 3.06714C7.08734 3.45336 6.95473 3.77939 6.6889 4.04522C6.42307 4.31106 6.09643 4.44336 5.71082 4.44214ZM5.71173 9.73131C5.3249 9.73131 4.99887 9.5987 4.73365 9.33347C4.46843 9.06825 4.33612 8.74253 4.33673 8.35631C4.33734 7.97009 4.46965 7.64406 4.73365 7.37822C4.99765 7.11239 5.32368 6.98008 5.71173 6.98131C6.09979 6.98253 6.42551 7.11483 6.6889 7.37822C6.95229 7.64161 7.0849 7.96764 7.08673 8.35631C7.08673 8.74253 6.95412 9.06825 6.6889 9.33347C6.42429 9.5987 6.09857 9.73131 5.71173 9.73131ZM5.71173 15.0196C5.3249 15.0196 4.99887 14.8869 4.73365 14.6217C4.46843 14.3565 4.33612 14.0308 4.33673 13.6446C4.33734 13.2583 4.46965 12.9323 4.73365 12.6665C4.99765 12.4006 5.32368 12.2683 5.71173 12.2696C6.09979 12.2708 6.42551 12.4031 6.6889 12.6665C6.95229 12.9299 7.0849 13.2559 7.08673 13.6446C7.08857 14.0332 6.95596 14.3589 6.6889 14.6217C6.42184 14.8845 6.09612 15.0171 5.71173 15.0196ZM16.2882 4.44214C15.902 4.44214 15.5763 4.30984 15.3111 4.04522C15.0458 3.78 14.9132 3.45397 14.9132 3.06714C14.9132 2.68092 15.0458 2.3552 15.3111 2.08997C15.5763 1.82475 15.902 1.69214 16.2882 1.69214C16.6745 1.69214 17.0005 1.82475 17.2663 2.08997C17.5309 2.3552 17.6632 2.68092 17.6632 3.06714C17.6632 3.45336 17.5309 3.77939 17.2663 4.04522C17.0017 4.31106 16.6757 4.44336 16.2882 4.44214ZM11 15.0196C10.6131 15.0196 10.2874 14.8869 10.0228 14.6217C9.75821 14.3565 9.62559 14.0308 9.62498 13.6446C9.62437 13.2583 9.75698 12.9323 10.0228 12.6665C10.2874 12.4019 10.6131 12.2696 11 12.2696C11.3868 12.2696 11.7125 12.4019 11.9771 12.6665C12.2418 12.9311 12.3744 13.2571 12.375 13.6446C12.3756 14.032 12.243 14.3577 11.9771 14.6217C11.7125 14.8869 11.3868 15.0196 11 15.0196ZM16.2891 15.0196C15.9017 15.0196 15.5757 14.8869 15.3111 14.6217C15.0458 14.3565 14.9132 14.0305 14.9132 13.6436C14.9132 13.2574 15.0458 12.9317 15.3111 12.6665C15.5763 12.4013 15.902 12.2686 16.2882 12.2686C16.6745 12.2686 17.0005 12.4013 17.2663 12.6665C17.5321 12.9317 17.6645 13.2574 17.6632 13.6436C17.662 14.0299 17.5297 14.3559 17.2663 14.6217C17.0029 14.8876 16.6769 15.0199 16.2882 15.0186M16.2882 9.73039C15.902 9.73039 15.5763 9.59808 15.3111 9.33347C15.0458 9.06825 14.9132 8.74222 14.9132 8.35539C14.9132 7.96917 15.0458 7.64345 15.3111 7.37822C15.5763 7.11361 15.902 6.98131 16.2882 6.98131C16.6745 6.98131 17.0005 7.11361 17.2663 7.37822C17.5309 7.64345 17.6632 7.96947 17.6632 8.35631C17.6632 8.74253 17.5309 9.06825 17.2663 9.33347C17.0011 9.59808 16.6751 9.73039 16.2882 9.73039ZM11 9.73039C10.6131 9.73039 10.2874 9.59808 10.0228 9.33347C9.75759 9.06825 9.62498 8.74253 9.62498 8.35631C9.62498 7.97009 9.75759 7.64406 10.0228 7.37822C10.2874 7.11361 10.6131 6.98131 11 6.98131C11.3868 6.98131 11.7125 7.11361 11.9771 7.37822C12.2418 7.64283 12.3744 7.96886 12.375 8.35631C12.3756 8.74375 12.243 9.06947 11.9771 9.33347C11.7125 9.5987 11.3868 9.73131 11 9.73131M11 4.44214C10.6131 4.44214 10.2874 4.30984 10.0228 4.04522C9.75759 3.78 9.62498 3.45397 9.62498 3.06714C9.62498 2.68031 9.75759 2.35459 10.0228 2.08997C10.288 1.82536 10.6138 1.69275 11 1.69214C11.3862 1.69153 11.7119 1.82414 11.9771 2.08997C12.2424 2.3552 12.375 2.68092 12.375 3.06714C12.375 3.45336 12.2424 3.77909 11.9771 4.04431C11.7119 4.30953 11.3862 4.44153 11 4.44214Z" fill="black"/>
</svg>