<svg xmlns="http://www.w3.org/2000/svg" width="28" height="28" viewBox="0 0 28 28" fill="none">
  <path d="M5.25 1.75V2.625C5.25 3.4475 5.7295 3.8605 6.65 4.55L6.72 4.6025C7.5495 5.22375 8.75 6.1215 8.75 7.875V8.75H7V7.875C7 7.0525 6.5205 6.6395 5.6 5.95L5.53 5.8975C4.7005 5.27625 3.5 4.3785 3.5 2.625V1.75H5.25ZM10.5 1.75V2.625C10.5 3.4475 10.9795 3.8605 11.9 4.55L11.97 4.6025C12.7995 5.22375 14 6.1215 14 7.875V8.75H12.25V7.875C12.25 7.0525 11.7705 6.6395 10.85 5.95L10.78 5.8975C9.9505 5.27625 8.75 4.3785 8.75 2.625V1.75H10.5ZM15.75 1.75V2.625C15.75 3.4475 16.2295 3.8605 17.15 4.55L17.22 4.6025C18.0495 5.22375 19.25 6.1215 19.25 7.875V8.75H17.5V7.875C17.5 7.0525 17.0205 6.6395 16.1 5.95L16.03 5.8975C15.2005 5.27625 14 4.3785 14 2.625V1.75H15.75Z" fill="black"/>
  <path fill-rule="evenodd" clip-rule="evenodd" d="M3.5 12.25L5.25 10.5H23.625C24.7853 10.5 25.8981 10.9609 26.7186 11.7814C27.5391 12.6019 28 13.7147 28 14.875C28 16.0353 27.5391 17.1481 26.7186 17.9686C25.8981 18.7891 24.7853 19.25 23.625 19.25H22.5295C22.1415 20.7529 21.2649 22.0842 20.0377 23.0345C18.8105 23.9849 17.3022 24.5004 15.75 24.5H10.5C8.64348 24.5 6.86301 23.7625 5.55025 22.4497C4.2375 21.137 3.5 19.3565 3.5 17.5V12.25ZM21 17.5V12.25H5.25V17.5C5.25 18.8924 5.80312 20.2277 6.78769 21.2123C7.77226 22.1969 9.10761 22.75 10.5 22.75H15.75C17.1424 22.75 18.4777 22.1969 19.4623 21.2123C20.4469 20.2277 21 18.8924 21 17.5ZM22.75 12.25V17.5H23.625C24.3212 17.5 24.9889 17.2234 25.4812 16.7312C25.9734 16.2389 26.25 15.5712 26.25 14.875C26.25 14.1788 25.9734 13.5111 25.4812 13.0188C24.9889 12.5266 24.3212 12.25 23.625 12.25H22.75Z" fill="black"/>
</svg>