<svg xmlns="http://www.w3.org/2000/svg" width="30" height="30" viewBox="0 0 30 30" fill="none">
  <path d="M14.0625 21.5375C11.9133 21.5375 10.0742 20.8171 8.545 19.3763C7.015 17.9346 6.25 16.1554 6.25 14.0387V5H22.8125C23.7625 5 24.5729 5.31917 25.2437 5.9575C25.9146 6.59417 26.25 7.38083 26.25 8.3175C26.25 9.3 25.9192 10.1383 25.2575 10.8325C24.5958 11.5267 23.7808 11.8742 22.8125 11.875H21.635V14.0375C21.635 16.1275 20.8979 17.9 19.4237 19.355C17.9504 20.8108 16.1633 21.5388 14.0625 21.5388M7.5 10.625H20.385V6.25H7.5V10.625ZM14.0625 20.2875C15.8242 20.2875 17.3179 19.6825 18.5437 18.4725C19.7712 17.2617 20.385 15.7837 20.385 14.0387V11.875H7.5V14.0375C7.5 15.7992 8.14542 17.2817 9.43625 18.485C10.7271 19.6883 12.2692 20.2896 14.0625 20.2888M21.635 10.625H22.8125C23.4292 10.625 23.9479 10.4008 24.3688 9.9525C24.7896 9.50417 25 8.95917 25 8.3175C25 7.7325 24.7817 7.24167 24.345 6.845C23.9083 6.44833 23.3975 6.25 22.8125 6.25H21.635V10.625ZM6.25 25V23.75H23.75V25H6.25Z" fill="black"/>
</svg>