<svg xmlns="http://www.w3.org/2000/svg" width="21" height="21" viewBox="0 0 21 21" fill="none">
  <path d="M18.5729 8.41665C18.5729 8.20945 18.4906 8.01074 18.3441 7.86422C18.1975 7.71771 17.9988 7.6354 17.7916 7.6354C17.5844 7.6354 17.3857 7.71771 17.2392 7.86422C17.0927 8.01074 17.0104 8.20945 17.0104 8.41665H18.5729ZM3.98954 8.41665C3.98954 8.20945 3.90723 8.01074 3.76072 7.86422C3.6142 7.71771 3.41549 7.6354 3.20829 7.6354C3.00109 7.6354 2.80238 7.71771 2.65586 7.86422C2.50935 8.01074 2.42704 8.20945 2.42704 8.41665H3.98954ZM19.3229 11.0521C19.3944 11.1288 19.4806 11.1904 19.5765 11.2331C19.6723 11.2758 19.7758 11.2988 19.8807 11.3006C19.9856 11.3025 20.0898 11.2832 20.187 11.2439C20.2843 11.2046 20.3727 11.1461 20.4469 11.0719C20.5211 10.9977 20.5795 10.9093 20.6188 10.8121C20.6581 10.7148 20.6774 10.6106 20.6756 10.5057C20.6737 10.4008 20.6508 10.2973 20.6081 10.2015C20.5654 10.1057 20.5038 10.0194 20.427 9.9479L19.3229 11.0521ZM10.5 1.12498L11.052 0.572901C10.9056 0.426598 10.707 0.344421 10.5 0.344421C10.2929 0.344421 10.0944 0.426598 9.94787 0.572901L10.5 1.12498ZM0.572873 9.9479C0.496116 10.0194 0.434551 10.1057 0.391852 10.2015C0.349152 10.2973 0.326191 10.4008 0.32434 10.5057C0.32249 10.6106 0.341786 10.7148 0.381079 10.8121C0.420371 10.9093 0.478855 10.9977 0.553042 11.0719C0.627228 11.1461 0.715597 11.2046 0.812876 11.2439C0.910155 11.2832 1.01435 11.3025 1.11925 11.3006C1.22415 11.2988 1.3276 11.2758 1.42343 11.2331C1.51927 11.1904 1.60552 11.1288 1.67704 11.0521L0.572873 9.9479ZM5.29162 20.6562H15.7083V19.0937H5.29162V20.6562ZM18.5729 17.7917V8.41665H17.0104V17.7917H18.5729ZM3.98954 17.7917V8.41665H2.42704V17.7917H3.98954ZM20.427 9.9479L11.052 0.572901L9.94787 1.67707L19.3229 11.0521L20.427 9.9479ZM9.94787 0.572901L0.572873 9.9479L1.67704 11.0521L11.052 1.67707L9.94787 0.572901ZM15.7083 20.6562C16.468 20.6562 17.1966 20.3544 17.7339 19.8172C18.2711 19.28 18.5729 18.5514 18.5729 17.7917H17.0104C17.0104 18.5104 16.427 19.0937 15.7083 19.0937V20.6562ZM5.29162 19.0937C4.57287 19.0937 3.98954 18.5104 3.98954 17.7917H2.42704C2.42704 18.5514 2.72884 19.28 3.26606 19.8172C3.80327 20.3544 4.53189 20.6562 5.29162 20.6562V19.0937Z" fill="#797979"/>
</svg>