<svg xmlns="http://www.w3.org/2000/svg" width="22" height="22" viewBox="0 0 22 22" fill="none">
  <path d="M3.66663 6.41667H18.3333M4.58329 6.41667L6.19663 15.9546C6.47713 17.6119 6.61829 18.4415 7.11329 19.0135C8.44613 20.5508 13.5538 20.5508 14.8866 19.0135C15.3816 18.4415 15.5228 17.6119 15.8033 15.9546L17.4166 6.41667L16.7355 4.84733C16.1782 3.56033 15.8986 2.91683 15.3165 2.55383C13.6995 1.54367 8.14088 1.64358 6.68338 2.55383C6.10129 2.91683 5.82263 3.56033 5.26438 4.84733L4.58329 6.41667Z" stroke="black" stroke-width="1.5" stroke-linecap="round" stroke-linejoin="round"/>
  <path d="M11 15.5833C12.0125 15.5833 12.8333 14.5573 12.8333 13.2917C12.8333 12.026 12.0125 11 11 11C9.98744 11 9.16663 12.026 9.16663 13.2917C9.16663 14.5573 9.98744 15.5833 11 15.5833Z" stroke="black" stroke-width="1.5" stroke-linecap="round" stroke-linejoin="round"/>
</svg>