<svg xmlns="http://www.w3.org/2000/svg" width="23" height="23" viewBox="0 0 23 23" fill="none">
  <path d="M11.5 1.4375C14.1689 1.4375 16.7285 2.49773 18.6158 4.38495C20.503 6.27217 21.5632 8.83179 21.5632 11.5007C21.5632 14.1697 20.503 16.7293 18.6158 18.6165C16.7285 20.5037 14.1689 21.5639 11.5 21.5639C8.83106 21.5639 6.27144 20.5037 4.38422 18.6165C2.497 16.7293 1.43677 14.1697 1.43677 11.5007C1.43677 8.83179 2.497 6.27217 4.38422 4.38495C6.27144 2.49773 8.83106 1.4375 11.5 1.4375ZM13.0094 7.61587C13.7569 7.61587 14.3635 7.09694 14.3635 6.32788C14.3635 5.55881 13.7554 5.03988 13.0094 5.03988C12.2619 5.03988 11.6581 5.55881 11.6581 6.32788C11.6581 7.09694 12.2619 7.61587 13.0094 7.61587ZM13.2724 15.7047C13.2724 15.5509 13.3256 15.1512 13.2954 14.9241L12.1138 16.284C11.8694 16.5413 11.5632 16.7196 11.4195 16.6721C11.3543 16.6481 11.2998 16.6016 11.2658 16.541C11.2318 16.4804 11.2205 16.4097 11.234 16.3415L13.2034 10.12C13.3644 9.33081 12.9217 8.61063 11.983 8.51863C10.9925 8.51863 9.53492 9.52344 8.64799 10.7985C8.64799 10.9509 8.61924 11.3304 8.64942 11.5575L9.82961 10.1962C10.074 9.94175 10.3586 9.76206 10.5024 9.81094C10.5732 9.83636 10.6312 9.88853 10.664 9.95626C10.6968 10.024 10.7017 10.1019 10.6777 10.1732L8.72561 16.3645C8.49992 17.089 8.92686 17.7991 9.96186 17.9601C11.4856 17.9601 12.3855 16.9798 13.2739 15.7047H13.2724Z" fill="#454B60"/>
</svg>