<svg xmlns="http://www.w3.org/2000/svg" width="20" height="20" viewBox="0 0 20 20" fill="none">
  <path d="M12.9167 9.16667C12.9167 9.54969 12.8413 9.92896 12.6947 10.2828C12.5481 10.6367 12.3333 10.9582 12.0624 11.2291C11.7916 11.4999 11.4701 11.7147 11.1162 11.8613C10.7623 12.0079 10.3831 12.0833 10 12.0833C9.61702 12.0833 9.23775 12.0079 8.88388 11.8613C8.53001 11.7147 8.20848 11.4999 7.93765 11.2291C7.66681 10.9582 7.45197 10.6367 7.30539 10.2828C7.15882 9.92896 7.08337 9.54969 7.08337 9.16667C7.08337 8.39312 7.39066 7.65125 7.93765 7.10427C8.48463 6.55729 9.22649 6.25 10 6.25C10.7736 6.25 11.5155 6.55729 12.0624 7.10427C12.6094 7.65125 12.9167 8.39312 12.9167 9.16667Z" stroke="black" stroke-width="1.5" stroke-linecap="round" stroke-linejoin="round"/>
  <path d="M10 1.66667C14.0583 1.66667 17.5 5.0275 17.5 9.105C17.5 13.2467 14.0025 16.1542 10.7725 18.13C10.5367 18.2627 10.2706 18.3325 10 18.3325C9.72938 18.3325 9.46333 18.2627 9.2275 18.13C6.0025 16.1358 2.5 13.2625 2.5 9.10583C2.5 5.0275 5.94167 1.66667 10 1.66667Z" stroke="black" stroke-width="1.5" stroke-linecap="round" stroke-linejoin="round"/>
</svg>