<svg xmlns="http://www.w3.org/2000/svg" width="30" height="30" viewBox="0 0 30 30" fill="none">
  <path d="M20.7143 15C20.7143 14.2422 20.4133 13.5155 19.8775 12.9797C19.3416 12.4439 18.6149 12.1428 17.8572 12.1428H9.28573C8.52797 12.1428 7.80124 12.4439 7.26543 12.9797C6.72961 13.5155 6.42859 14.2422 6.42859 15V18.5714C6.42859 20.2764 7.10588 21.9115 8.31147 23.1171C9.51706 24.3227 11.1522 25 12.8572 25H14.2857C15.9907 25 17.6258 24.3227 18.8314 23.1171C20.037 21.9115 20.7143 20.2764 20.7143 18.5714V15ZM20.7143 15H22.1429C22.9006 15 23.6274 15.301 24.1632 15.8368C24.699 16.3726 25 17.0994 25 17.8571C25 18.6149 24.699 19.3416 24.1632 19.8774C23.6274 20.4132 22.9006 20.7143 22.1429 20.7143H20.7143M12.1429 9.2857V3.57141M15 9.2857V6.42855" stroke="black" stroke-linecap="round" stroke-linejoin="round"/>
</svg>