<svg xmlns="http://www.w3.org/2000/svg" width="24" height="24" viewBox="0 0 24 24" fill="none">
  <path d="M15 11L16 17M9 11L8 17M9 6V5C9 4.20435 9.31607 3.44129 9.87868 2.87868C10.4413 2.31607 11.2044 2 12 2C12.7956 2 13.5587 2.31607 14.1213 2.87868C14.6839 3.44129 15 4.20435 15 5V6" stroke="#797979" stroke-width="1.5" stroke-linecap="round"/>
  <path d="M20.2239 12.526C19.6379 9.405 19.3459 7.844 18.2339 6.922C17.1249 6 15.5369 6 12.3599 6H11.6399C8.46394 6 6.87594 6 5.76494 6.922C4.65394 7.844 4.36194 9.405 3.77594 12.526C2.95294 16.915 2.54194 19.109 3.74194 20.555C4.94194 22.001 7.17394 22 11.6389 22H12.3609C16.8259 22 19.0589 22 20.2579 20.555C20.9539 19.715 21.1079 18.625 20.9539 17" stroke="#797979" stroke-width="1.5" stroke-linecap="round"/>
</svg>