<svg xmlns="http://www.w3.org/2000/svg" width="18" height="23" viewBox="0 0 18 23" fill="none">
  <path d="M7.875 17.25H10.125V10.35H7.875V17.25ZM9 8.05C9.31875 8.05 9.58613 7.9396 9.80212 7.7188C10.0181 7.498 10.1257 7.22507 10.125 6.9C10.1243 6.57493 10.0162 6.302 9.801 6.0812C9.58575 5.8604 9.31875 5.75 9 5.75C8.68125 5.75 8.41425 5.8604 8.199 6.0812C7.98375 6.302 7.87575 6.57493 7.875 6.9C7.87425 7.22507 7.98225 7.49838 8.199 7.71995C8.41575 7.94152 8.68275 8.05153 9 8.05ZM9 23C6.39375 22.3292 4.242 20.8004 2.54475 18.4138C0.847501 16.0272 -0.000749503 13.3776 4.96908e-07 10.465V3.45L9 0L18 3.45V10.465C18 13.3783 17.1518 16.0283 15.4553 18.4149C13.7588 20.8016 11.607 22.3299 9 23ZM9 20.585C10.95 19.9525 12.5625 18.6875 13.8375 16.79C15.1125 14.8925 15.75 12.7842 15.75 10.465V5.03125L9 2.44375L2.25 5.03125V10.465C2.25 12.7842 2.8875 14.8925 4.1625 16.79C5.4375 18.6875 7.05 19.9525 9 20.585Z" fill="#454B60"/>
</svg>