<svg xmlns="http://www.w3.org/2000/svg" width="16" height="16" viewBox="0 0 16 16" fill="none">
  <path d="M7.99994 10.7347L5.57994 12.1961C5.50882 12.2312 5.44282 12.2454 5.38194 12.2387C5.32149 12.2316 5.2626 12.2107 5.20527 12.1761C5.14749 12.1405 5.10394 12.0903 5.0746 12.0254C5.04527 11.9605 5.0426 11.8896 5.0666 11.8127L5.7106 9.07272L3.5806 7.22605C3.5206 7.17716 3.48105 7.11872 3.46193 7.05072C3.44282 6.98272 3.44705 6.91761 3.4746 6.85538C3.50216 6.79316 3.53882 6.74205 3.5846 6.70205C3.63082 6.66338 3.69305 6.63716 3.77127 6.62338L6.58194 6.37805L7.67794 3.78338C7.70816 3.71005 7.75171 3.65716 7.8086 3.62472C7.86549 3.59227 7.92927 3.57605 7.99994 3.57605C8.0706 3.57605 8.1346 3.59227 8.19194 3.62472C8.24927 3.65716 8.2926 3.71005 8.32194 3.78338L9.41794 6.37805L12.2279 6.62338C12.3066 6.63672 12.369 6.66316 12.4153 6.70272C12.4615 6.74183 12.4984 6.79272 12.5259 6.85538C12.553 6.91761 12.557 6.98272 12.5379 7.05072C12.5188 7.11872 12.4793 7.17716 12.4193 7.22605L10.2893 9.07272L10.9333 11.8127C10.9582 11.8887 10.9557 11.9594 10.9259 12.0247C10.8962 12.0901 10.8524 12.1403 10.7946 12.1754C10.7377 12.2109 10.6788 12.232 10.6179 12.2387C10.5575 12.2454 10.4917 12.2312 10.4206 12.1961L7.99994 10.7347Z" fill="#605100"/>
</svg>